<svg width="148" height="43" viewBox="0 0 148 43" fill="none" xmlns="http://www.w3.org/2000/svg">
<mask id="path-1-outside-1_251_1545" maskUnits="userSpaceOnUse" x="0" y="10" width="123" height="21" fill="black">
<rect fill="white" y="10" width="123" height="21"/>
<path d="M1.52344 29V11.5391H8.50781C10.4297 11.5391 11.875 11.9609 12.8438 12.8047C13.8125 13.6406 14.2969 14.7109 14.2969 16.0156C14.2969 17.0391 13.9961 17.8711 13.3945 18.5117C12.8008 19.1445 12.0508 19.5625 11.1445 19.7656V19.9414C11.8086 19.9727 12.4297 20.1602 13.0078 20.5039C13.5938 20.8477 14.0664 21.332 14.4258 21.957C14.793 22.5742 14.9766 23.3125 14.9766 24.1719C14.9766 25.0938 14.75 25.9219 14.2969 26.6562C13.8438 27.3828 13.1719 27.957 12.2812 28.3789C11.3906 28.793 10.2891 29 8.97656 29H1.52344ZM7.94531 18.8516C8.69531 18.8516 9.32031 18.6523 9.82031 18.2539C10.3203 17.8555 10.5703 17.3125 10.5703 16.625C10.5703 16 10.3477 15.4961 9.90234 15.1133C9.45703 14.7227 8.82812 14.5273 8.01562 14.5273H5.20312V18.8516H7.94531ZM8.21484 25.9883C9.24609 25.9883 9.99609 25.7891 10.4648 25.3906C10.9414 24.9922 11.1797 24.4648 11.1797 23.8086C11.1797 23.0898 10.9219 22.5 10.4062 22.0391C9.89062 21.5703 9.19141 21.3359 8.30859 21.3359H5.20312V25.9883H8.21484ZM20.3906 29H16.4297L22.4648 11.5391H27.2109L33.2344 29H29.2852L27.9844 25.0156H21.6797L20.3906 29ZM22.6172 22.1328H27.0469L24.9023 15.5234H24.7617L22.6172 22.1328ZM43.1367 29.2344C41.582 29.2344 40.1914 28.8828 38.9648 28.1797C37.7383 27.4766 36.7695 26.457 36.0586 25.1211C35.3555 23.7852 35.0039 22.1719 35.0039 20.2812C35.0039 18.375 35.3594 16.7539 36.0703 15.418C36.7891 14.082 37.7617 13.0625 38.9883 12.3594C40.2227 11.6562 41.6055 11.3047 43.1367 11.3047C44.4883 11.3047 45.7031 11.5547 46.7812 12.0547C47.8672 12.5547 48.7539 13.2773 49.4414 14.2227C50.1289 15.168 50.5508 16.3125 50.707 17.6562H46.9805C46.8398 16.6953 46.4297 15.9414 45.75 15.3945C45.0703 14.8398 44.2266 14.5625 43.2188 14.5625C41.875 14.5625 40.793 15.0625 39.9727 16.0625C39.1523 17.0547 38.7422 18.4609 38.7422 20.2812C38.7422 22.1406 39.1523 23.5547 39.9727 24.5234C40.8008 25.4922 41.8789 25.9766 43.207 25.9766C44.1836 25.9766 45.0117 25.7188 45.6914 25.2031C46.3789 24.6875 46.8086 23.9648 46.9805 23.0352H50.707C50.5742 24.1055 50.1914 25.1133 49.5586 26.0586C48.9336 27.0039 48.0781 27.7695 46.9922 28.3555C45.9141 28.9414 44.6289 29.2344 43.1367 29.2344ZM56.3672 29H52.4062L58.4414 11.5391H63.1875L69.2109 29H65.2617L63.9609 25.0156H57.6562L56.3672 29ZM58.5938 22.1328H63.0234L60.8789 15.5234H60.7383L58.5938 22.1328Z"/>
<path d="M70.2539 11.5391H74.4023L78.375 19.0625H78.5508L82.5352 11.5391H86.6719L80.2969 22.8359V29H76.6289V22.8359L70.2539 11.5391ZM99.4688 11.5391H103.148V22.8594C103.148 24.1328 102.848 25.25 102.246 26.2109C101.645 27.1641 100.801 27.9062 99.7148 28.4375C98.6289 28.9688 97.3633 29.2344 95.918 29.2344C94.4648 29.2344 93.1953 28.9688 92.1094 28.4375C91.0312 27.9062 90.1914 27.1641 89.5898 26.2109C88.9883 25.25 88.6875 24.1328 88.6875 22.8594V11.5391H92.3672V22.5547C92.3672 23.5547 92.6914 24.3789 93.3398 25.0273C93.9883 25.668 94.8477 25.9883 95.918 25.9883C96.9883 25.9883 97.8477 25.668 98.4961 25.0273C99.1445 24.3789 99.4688 23.5547 99.4688 22.5547V11.5391ZM106.195 29V11.5391H109.875V19.2383H110.098L116.391 11.5391H120.809L114.34 19.3555L120.891 29H116.461L111.691 21.8281L109.875 24.043V29H106.195Z"/>
</mask>
<path d="M1.52344 29V11.5391H8.50781C10.4297 11.5391 11.875 11.9609 12.8438 12.8047C13.8125 13.6406 14.2969 14.7109 14.2969 16.0156C14.2969 17.0391 13.9961 17.8711 13.3945 18.5117C12.8008 19.1445 12.0508 19.5625 11.1445 19.7656V19.9414C11.8086 19.9727 12.4297 20.1602 13.0078 20.5039C13.5938 20.8477 14.0664 21.332 14.4258 21.957C14.793 22.5742 14.9766 23.3125 14.9766 24.1719C14.9766 25.0938 14.75 25.9219 14.2969 26.6562C13.8438 27.3828 13.1719 27.957 12.2812 28.3789C11.3906 28.793 10.2891 29 8.97656 29H1.52344ZM7.94531 18.8516C8.69531 18.8516 9.32031 18.6523 9.82031 18.2539C10.3203 17.8555 10.5703 17.3125 10.5703 16.625C10.5703 16 10.3477 15.4961 9.90234 15.1133C9.45703 14.7227 8.82812 14.5273 8.01562 14.5273H5.20312V18.8516H7.94531ZM8.21484 25.9883C9.24609 25.9883 9.99609 25.7891 10.4648 25.3906C10.9414 24.9922 11.1797 24.4648 11.1797 23.8086C11.1797 23.0898 10.9219 22.5 10.4062 22.0391C9.89062 21.5703 9.19141 21.3359 8.30859 21.3359H5.20312V25.9883H8.21484ZM20.3906 29H16.4297L22.4648 11.5391H27.2109L33.2344 29H29.2852L27.9844 25.0156H21.6797L20.3906 29ZM22.6172 22.1328H27.0469L24.9023 15.5234H24.7617L22.6172 22.1328ZM43.1367 29.2344C41.582 29.2344 40.1914 28.8828 38.9648 28.1797C37.7383 27.4766 36.7695 26.457 36.0586 25.1211C35.3555 23.7852 35.0039 22.1719 35.0039 20.2812C35.0039 18.375 35.3594 16.7539 36.0703 15.418C36.7891 14.082 37.7617 13.0625 38.9883 12.3594C40.2227 11.6562 41.6055 11.3047 43.1367 11.3047C44.4883 11.3047 45.7031 11.5547 46.7812 12.0547C47.8672 12.5547 48.7539 13.2773 49.4414 14.2227C50.1289 15.168 50.5508 16.3125 50.707 17.6562H46.9805C46.8398 16.6953 46.4297 15.9414 45.75 15.3945C45.0703 14.8398 44.2266 14.5625 43.2188 14.5625C41.875 14.5625 40.793 15.0625 39.9727 16.0625C39.1523 17.0547 38.7422 18.4609 38.7422 20.2812C38.7422 22.1406 39.1523 23.5547 39.9727 24.5234C40.8008 25.4922 41.8789 25.9766 43.207 25.9766C44.1836 25.9766 45.0117 25.7188 45.6914 25.2031C46.3789 24.6875 46.8086 23.9648 46.9805 23.0352H50.707C50.5742 24.1055 50.1914 25.1133 49.5586 26.0586C48.9336 27.0039 48.0781 27.7695 46.9922 28.3555C45.9141 28.9414 44.6289 29.2344 43.1367 29.2344ZM56.3672 29H52.4062L58.4414 11.5391H63.1875L69.2109 29H65.2617L63.9609 25.0156H57.6562L56.3672 29ZM58.5938 22.1328H63.0234L60.8789 15.5234H60.7383L58.5938 22.1328Z" fill="black"/>
<path d="M1.52344 29H0.523438V30H1.52344V29ZM1.52344 11.5391V10.5391H0.523438V11.5391H1.52344ZM12.8438 12.8047L12.187 13.5588L12.1904 13.5618L12.8438 12.8047ZM13.3945 18.5117L12.6655 17.8272L12.6653 17.8275L13.3945 18.5117ZM11.1445 19.7656L10.9258 18.7898L10.1445 18.965V19.7656H11.1445ZM11.1445 19.9414H10.1445V20.8955L11.0975 20.9403L11.1445 19.9414ZM13.0078 20.5039L12.4967 21.3635L12.5018 21.3664L13.0078 20.5039ZM14.4258 21.957L13.5589 22.4555L13.5626 22.4619L13.5664 22.4683L14.4258 21.957ZM14.2969 26.6562L15.1454 27.1854L15.1479 27.1814L14.2969 26.6562ZM12.2812 28.3789L12.7028 29.2857L12.7093 29.2826L12.2812 28.3789ZM9.90234 15.1133L9.24287 15.8651L9.25046 15.8716L9.90234 15.1133ZM5.20312 14.5273V13.5273H4.20312V14.5273H5.20312ZM5.20312 18.8516H4.20312V19.8516H5.20312V18.8516ZM10.4648 25.3906L9.8234 24.6234L9.8172 24.6287L10.4648 25.3906ZM10.4062 22.0391L9.73355 22.779L9.73979 22.7846L10.4062 22.0391ZM5.20312 21.3359V20.3359H4.20312V21.3359H5.20312ZM5.20312 25.9883H4.20312V26.9883H5.20312V25.9883ZM1.52344 29H2.52344V11.5391H1.52344H0.523438V29H1.52344ZM1.52344 11.5391V12.5391H8.50781V11.5391V10.5391H1.52344V11.5391ZM8.50781 11.5391V12.5391C10.3044 12.5391 11.472 12.9361 12.187 13.5588L12.8438 12.8047L13.5005 12.0506C12.278 10.9858 10.555 10.5391 8.50781 10.5391V11.5391ZM12.8438 12.8047L12.1904 13.5618C12.9341 14.2035 13.2969 14.9951 13.2969 16.0156H14.2969H15.2969C15.2969 14.4267 14.6909 13.0777 13.4971 12.0476L12.8438 12.8047ZM14.2969 16.0156H13.2969C13.2969 16.8295 13.0646 17.4022 12.6655 17.8272L13.3945 18.5117L14.1235 19.1963C14.9276 18.34 15.2969 17.2486 15.2969 16.0156H14.2969ZM13.3945 18.5117L12.6653 17.8275C12.2184 18.3037 11.651 18.6273 10.9258 18.7898L11.1445 19.7656L11.3632 20.7414C12.4506 20.4977 13.3831 19.9854 14.1238 19.196L13.3945 18.5117ZM11.1445 19.7656H10.1445V19.9414H11.1445H12.1445V19.7656H11.1445ZM11.1445 19.9414L11.0975 20.9403C11.5958 20.9637 12.0578 21.1025 12.4967 21.3634L13.0078 20.5039L13.5189 19.6444C12.8016 19.2179 12.0214 18.9816 11.1915 18.9425L11.1445 19.9414ZM13.0078 20.5039L12.5018 21.3664C12.9286 21.6168 13.2806 21.9716 13.5589 22.4555L14.4258 21.957L15.2927 21.4586C14.8522 20.6925 14.2589 20.0785 13.5138 19.6414L13.0078 20.5039ZM14.4258 21.957L13.5664 22.4683C13.8249 22.9029 13.9766 23.4569 13.9766 24.1719H14.9766H15.9766C15.9766 23.1681 15.761 22.2455 15.2852 21.4457L14.4258 21.957ZM14.9766 24.1719H13.9766C13.9766 24.9215 13.7949 25.5655 13.4458 26.1311L14.2969 26.6562L15.1479 27.1814C15.7051 26.2783 15.9766 25.266 15.9766 24.1719H14.9766ZM14.2969 26.6562L13.4484 26.1271C13.1112 26.6677 12.5974 27.1226 11.8532 27.4752L12.2812 28.3789L12.7093 29.2826C13.7463 28.7914 14.5763 28.0979 15.1454 27.1854L14.2969 26.6562ZM12.2812 28.3789L11.8597 27.4721C11.1377 27.8078 10.19 28 8.97656 28V29V30C10.3881 30 11.6436 29.7782 12.7028 29.2857L12.2812 28.3789ZM8.97656 29V28H1.52344V29V30H8.97656V29ZM7.94531 18.8516V19.8516C8.88083 19.8516 9.73691 19.599 10.4435 19.036L9.82031 18.2539L9.19711 17.4718C8.90371 17.7056 8.50979 17.8516 7.94531 17.8516V18.8516ZM9.82031 18.2539L10.4435 19.036C11.2015 18.432 11.5703 17.5906 11.5703 16.625H10.5703H9.57031C9.57031 17.0344 9.43914 17.279 9.19711 17.4718L9.82031 18.2539ZM10.5703 16.625H11.5703C11.5703 15.7299 11.2362 14.9412 10.5542 14.355L9.90234 15.1133L9.25046 15.8716C9.45912 16.051 9.57031 16.2701 9.57031 16.625H10.5703ZM9.90234 15.1133L10.5618 14.3615C9.87592 13.7599 8.98032 13.5273 8.01562 13.5273V14.5273V15.5273C8.67593 15.5273 9.03814 15.6854 9.24291 15.865L9.90234 15.1133ZM8.01562 14.5273V13.5273H5.20312V14.5273V15.5273H8.01562V14.5273ZM5.20312 14.5273H4.20312V18.8516H5.20312H6.20312V14.5273H5.20312ZM5.20312 18.8516V19.8516H7.94531V18.8516V17.8516H5.20312V18.8516ZM8.21484 25.9883V26.9883C9.33544 26.9883 10.3755 26.779 11.1125 26.1526L10.4648 25.3906L9.8172 24.6287C9.61673 24.7991 9.15675 24.9883 8.21484 24.9883V25.9883ZM10.4648 25.3906L11.1063 26.1578C11.8244 25.5574 12.1797 24.7419 12.1797 23.8086H11.1797H10.1797C10.1797 24.1878 10.0584 24.4269 9.82342 24.6234L10.4648 25.3906ZM11.1797 23.8086H12.1797C12.1797 22.8179 11.8098 21.9525 11.0727 21.2935L10.4062 22.0391L9.73979 22.7846C10.0339 23.0475 10.1797 23.3618 10.1797 23.8086H11.1797ZM10.4062 22.0391L11.0789 21.2991C10.334 20.6219 9.37135 20.3359 8.30859 20.3359V21.3359V22.3359C9.01146 22.3359 9.44729 22.5187 9.73358 22.779L10.4062 22.0391ZM8.30859 21.3359V20.3359H5.20312V21.3359V22.3359H8.30859V21.3359ZM5.20312 21.3359H4.20312V25.9883H5.20312H6.20312V21.3359H5.20312ZM5.20312 25.9883V26.9883H8.21484V25.9883V24.9883H5.20312V25.9883ZM20.3906 29V30H21.1181L21.3421 29.3078L20.3906 29ZM16.4297 29L15.4846 28.6733L15.026 30H16.4297V29ZM22.4648 11.5391V10.5391H21.7524L21.5197 11.2124L22.4648 11.5391ZM27.2109 11.5391L28.1563 11.213L27.9238 10.5391H27.2109V11.5391ZM33.2344 29V30H34.6372L34.1797 28.6739L33.2344 29ZM29.2852 29L28.3345 29.3104L28.5597 30H29.2852V29ZM27.9844 25.0156L28.935 24.7053L28.7098 24.0156H27.9844V25.0156ZM21.6797 25.0156V24.0156H20.9522L20.7282 24.7078L21.6797 25.0156ZM22.6172 22.1328L21.666 21.8242L21.2414 23.1328H22.6172V22.1328ZM27.0469 22.1328V23.1328H28.4227L27.9981 21.8242L27.0469 22.1328ZM24.9023 15.5234L25.8535 15.2148L25.6292 14.5234H24.9023V15.5234ZM24.7617 15.5234V14.5234H24.0349L23.8105 15.2148L24.7617 15.5234ZM20.3906 29V28H16.4297V29V30H20.3906V29ZM16.4297 29L17.3748 29.3267L23.41 11.8657L22.4648 11.5391L21.5197 11.2124L15.4846 28.6733L16.4297 29ZM22.4648 11.5391V12.5391H27.2109V11.5391V10.5391H22.4648V11.5391ZM27.2109 11.5391L26.2656 11.8652L32.289 29.3261L33.2344 29L34.1797 28.6739L28.1563 11.213L27.2109 11.5391ZM33.2344 29V28H29.2852V29V30H33.2344V29ZM29.2852 29L30.2358 28.6896L28.935 24.7053L27.9844 25.0156L27.0338 25.326L28.3345 29.3104L29.2852 29ZM27.9844 25.0156V24.0156H21.6797V25.0156V26.0156H27.9844V25.0156ZM21.6797 25.0156L20.7282 24.7078L19.4392 28.6922L20.3906 29L21.3421 29.3078L22.6311 25.3234L21.6797 25.0156ZM22.6172 22.1328V23.1328H27.0469V22.1328V21.1328H22.6172V22.1328ZM27.0469 22.1328L27.9981 21.8242L25.8535 15.2148L24.9023 15.5234L23.9512 15.8321L26.0957 22.4414L27.0469 22.1328ZM24.9023 15.5234V14.5234H24.7617V15.5234V16.5234H24.9023V15.5234ZM24.7617 15.5234L23.8105 15.2148L21.666 21.8242L22.6172 22.1328L23.5684 22.4414L25.7129 15.8321L24.7617 15.5234ZM36.0586 25.1211L35.1737 25.5868L35.1758 25.5909L36.0586 25.1211ZM36.0703 15.418L35.1897 14.9442L35.1875 14.9482L36.0703 15.418ZM38.9883 12.3594L38.4933 11.4905L38.491 11.4918L38.9883 12.3594ZM46.7812 12.0547L46.3605 12.9619L46.363 12.963L46.7812 12.0547ZM50.707 17.6562V18.6562H51.83L51.7003 17.5407L50.707 17.6562ZM46.9805 17.6562L45.991 17.801L46.1162 18.6562H46.9805V17.6562ZM45.75 15.3945L45.1177 16.1693L45.1231 16.1736L45.75 15.3945ZM39.9727 16.0625L40.7434 16.6997L40.7458 16.6967L39.9727 16.0625ZM39.9727 24.5234L39.2095 25.1697L39.2125 25.1732L39.9727 24.5234ZM45.6914 25.2031L45.0914 24.4031L45.087 24.4064L45.6914 25.2031ZM46.9805 23.0352V22.0352H46.1484L45.9971 22.8534L46.9805 23.0352ZM50.707 23.0352L51.6994 23.1583L51.8388 22.0352H50.707V23.0352ZM49.5586 26.0586L48.7276 25.5023L48.7244 25.5071L49.5586 26.0586ZM46.9922 28.3555L46.5173 27.4754L46.5147 27.4768L46.9922 28.3555ZM43.1367 29.2344V28.2344C41.7387 28.2344 40.5226 27.92 39.4622 27.3121L38.9648 28.1797L38.4675 29.0472C39.8602 29.8456 41.4254 30.2344 43.1367 30.2344V29.2344ZM38.9648 28.1797L39.4622 27.3121C38.4106 26.7093 37.5703 25.8332 36.9414 24.6513L36.0586 25.1211L35.1758 25.5909C35.9687 27.0808 37.066 28.2438 38.4675 29.0472L38.9648 28.1797ZM36.0586 25.1211L36.9435 24.6553C36.3327 23.4948 36.0039 22.0497 36.0039 20.2812H35.0039H34.0039C34.0039 22.294 34.3783 24.0755 35.1737 25.5868L36.0586 25.1211ZM35.0039 20.2812H36.0039C36.0039 18.4972 36.3366 17.0463 36.9531 15.8878L36.0703 15.418L35.1875 14.9482C34.3822 16.4615 34.0039 18.2528 34.0039 20.2812H35.0039ZM36.0703 15.418L36.9509 15.8918C37.5879 14.7078 38.433 13.8304 39.4856 13.2269L38.9883 12.3594L38.491 11.4918C37.0905 12.2946 35.9902 13.4563 35.1897 14.9442L36.0703 15.418ZM38.9883 12.3594L39.4832 13.2283C40.5551 12.6177 41.7651 12.3047 43.1367 12.3047V11.3047V10.3047C41.4459 10.3047 39.8902 10.6948 38.4933 11.4905L38.9883 12.3594ZM43.1367 11.3047V12.3047C44.3629 12.3047 45.4312 12.5309 46.3605 12.9619L46.7812 12.0547L47.202 11.1475C45.975 10.5785 44.6136 10.3047 43.1367 10.3047V11.3047ZM46.7812 12.0547L46.363 12.963C47.2972 13.3932 48.0482 14.0071 48.6327 14.8108L49.4414 14.2227L50.2501 13.6345C49.4596 12.5475 48.4371 11.7162 47.1995 11.1463L46.7812 12.0547ZM49.4414 14.2227L48.6327 14.8108C49.2041 15.5965 49.5742 16.5717 49.7137 17.7718L50.707 17.6562L51.7003 17.5407C51.5274 16.0533 51.0537 14.7394 50.2501 13.6345L49.4414 14.2227ZM50.707 17.6562V16.6562H46.9805V17.6562V18.6562H50.707V17.6562ZM46.9805 17.6562L47.9699 17.5115C47.7973 16.3315 47.2759 15.3388 46.3769 14.6154L45.75 15.3945L45.1231 16.1736C45.5834 16.544 45.8824 17.0591 45.991 17.801L46.9805 17.6562ZM45.75 15.3945L46.3823 14.6198C45.498 13.8981 44.4209 13.5625 43.2188 13.5625V14.5625V15.5625C44.0323 15.5625 44.6427 15.7816 45.1177 16.1693L45.75 15.3945ZM43.2188 14.5625V13.5625C41.589 13.5625 40.2181 14.1865 39.1995 15.4283L39.9727 16.0625L40.7458 16.6967C41.3678 15.9385 42.161 15.5625 43.2188 15.5625V14.5625ZM39.9727 16.0625L39.202 15.4253C38.1826 16.6583 37.7422 18.3231 37.7422 20.2812H38.7422H39.7422C39.7422 18.5988 40.1221 17.4511 40.7434 16.6997L39.9727 16.0625ZM38.7422 20.2812H37.7422C37.7422 22.2701 38.179 23.9526 39.2095 25.1697L39.9727 24.5234L40.7358 23.8772C40.1257 23.1567 39.7422 22.0111 39.7422 20.2812H38.7422ZM39.9727 24.5234L39.2125 25.1732C40.2396 26.3747 41.6006 26.9766 43.207 26.9766V25.9766V24.9766C42.1572 24.9766 41.3619 24.6097 40.7328 23.8737L39.9727 24.5234ZM43.207 25.9766V26.9766C44.3689 26.9766 45.4177 26.666 46.2958 25.9998L45.6914 25.2031L45.087 24.4064C44.6058 24.7715 43.9983 24.9766 43.207 24.9766V25.9766ZM45.6914 25.2031L46.2914 26.0031C47.2006 25.3213 47.7512 24.3667 47.9638 23.2169L46.9805 23.0352L45.9971 22.8534C45.8659 23.563 45.5572 24.0537 45.0914 24.4031L45.6914 25.2031ZM46.9805 23.0352V24.0352H50.707V23.0352V22.0352H46.9805V23.0352ZM50.707 23.0352L49.7146 22.912C49.6021 23.8188 49.2784 24.6795 48.7276 25.5023L49.5586 26.0586L50.3896 26.6149C51.1044 25.5471 51.5463 24.3921 51.6994 23.1583L50.707 23.0352ZM49.5586 26.0586L48.7244 25.5071C48.1982 26.303 47.4715 26.9606 46.5173 27.4754L46.9922 28.3555L47.467 29.2355C48.6848 28.5785 49.669 27.7048 50.3928 26.6101L49.5586 26.0586ZM46.9922 28.3555L46.5147 27.4768C45.6116 27.9676 44.4978 28.2344 43.1367 28.2344V29.2344V30.2344C44.76 30.2344 46.2165 29.9152 47.4697 29.2341L46.9922 28.3555ZM56.3672 29V30H57.0947L57.3186 29.3078L56.3672 29ZM52.4062 29L51.4611 28.6733L51.0026 30H52.4062V29ZM58.4414 11.5391V10.5391H57.729L57.4963 11.2124L58.4414 11.5391ZM63.1875 11.5391L64.1328 11.213L63.9004 10.5391H63.1875V11.5391ZM69.2109 29V30H70.6137L70.1563 28.6739L69.2109 29ZM65.2617 29L64.3111 29.3104L64.5362 30H65.2617V29ZM63.9609 25.0156L64.9116 24.7053L64.6864 24.0156H63.9609V25.0156ZM57.6562 25.0156V24.0156H56.9287L56.7048 24.7078L57.6562 25.0156ZM58.5938 22.1328L57.6426 21.8242L57.218 23.1328H58.5938V22.1328ZM63.0234 22.1328V23.1328H64.3992L63.9746 21.8242L63.0234 22.1328ZM60.8789 15.5234L61.8301 15.2148L61.6058 14.5234H60.8789V15.5234ZM60.7383 15.5234V14.5234H60.0114L59.7871 15.2148L60.7383 15.5234ZM56.3672 29V28H52.4062V29V30H56.3672V29ZM52.4062 29L53.3514 29.3267L59.3865 11.8657L58.4414 11.5391L57.4963 11.2124L51.4611 28.6733L52.4062 29ZM58.4414 11.5391V12.5391H63.1875V11.5391V10.5391H58.4414V11.5391ZM63.1875 11.5391L62.2422 11.8652L68.2656 29.3261L69.2109 29L70.1563 28.6739L64.1328 11.213L63.1875 11.5391ZM69.2109 29V28H65.2617V29V30H69.2109V29ZM65.2617 29L66.2123 28.6896L64.9116 24.7053L63.9609 25.0156L63.0103 25.326L64.3111 29.3104L65.2617 29ZM63.9609 25.0156V24.0156H57.6562V25.0156V26.0156H63.9609V25.0156ZM57.6562 25.0156L56.7048 24.7078L55.4157 28.6922L56.3672 29L57.3186 29.3078L58.6077 25.3234L57.6562 25.0156ZM58.5938 22.1328V23.1328H63.0234V22.1328V21.1328H58.5938V22.1328ZM63.0234 22.1328L63.9746 21.8242L61.8301 15.2148L60.8789 15.5234L59.9277 15.8321L62.0723 22.4414L63.0234 22.1328ZM60.8789 15.5234V14.5234H60.7383V15.5234V16.5234H60.8789V15.5234ZM60.7383 15.5234L59.7871 15.2148L57.6426 21.8242L58.5938 22.1328L59.5449 22.4414L61.6895 15.8321L60.7383 15.5234ZM70.2539 11.5391V10.5391H68.5414L69.383 12.0305L70.2539 11.5391ZM74.4023 11.5391L75.2866 11.0721L75.0052 10.5391H74.4023V11.5391ZM78.375 19.0625L77.4907 19.5294L77.7722 20.0625H78.375V19.0625ZM78.5508 19.0625V20.0625H79.1528L79.4345 19.5305L78.5508 19.0625ZM82.5352 11.5391V10.5391H81.9332L81.6514 11.071L82.5352 11.5391ZM86.6719 11.5391L87.5428 12.0305L88.3844 10.5391H86.6719V11.5391ZM80.2969 22.8359L79.426 22.3445L79.2969 22.5733V22.8359H80.2969ZM80.2969 29V30H81.2969V29H80.2969ZM76.6289 29H75.6289V30H76.6289V29ZM76.6289 22.8359H77.6289V22.5733L77.4998 22.3445L76.6289 22.8359ZM70.2539 11.5391V12.5391H74.4023V11.5391V10.5391H70.2539V11.5391ZM74.4023 11.5391L73.5181 12.006L77.4907 19.5294L78.375 19.0625L79.2593 18.5956L75.2866 11.0721L74.4023 11.5391ZM78.375 19.0625V20.0625H78.5508V19.0625V18.0625H78.375V19.0625ZM78.5508 19.0625L79.4345 19.5305L83.4189 12.0071L82.5352 11.5391L81.6514 11.071L77.6671 18.5945L78.5508 19.0625ZM82.5352 11.5391V12.5391H86.6719V11.5391V10.5391H82.5352V11.5391ZM86.6719 11.5391L85.801 11.0476L79.426 22.3445L80.2969 22.8359L81.1678 23.3274L87.5428 12.0305L86.6719 11.5391ZM80.2969 22.8359H79.2969V29H80.2969H81.2969V22.8359H80.2969ZM80.2969 29V28H76.6289V29V30H80.2969V29ZM76.6289 29H77.6289V22.8359H76.6289H75.6289V29H76.6289ZM76.6289 22.8359L77.4998 22.3445L71.1248 11.0476L70.2539 11.5391L69.383 12.0305L75.758 23.3274L76.6289 22.8359ZM99.4688 11.5391V10.5391H98.4688V11.5391H99.4688ZM103.148 11.5391H104.148V10.5391H103.148V11.5391ZM102.246 26.2109L103.092 26.7447L103.094 26.7416L102.246 26.2109ZM92.1094 28.4375L91.6674 29.3345L91.6699 29.3358L92.1094 28.4375ZM89.5898 26.2109L88.7422 26.7416L88.7442 26.7447L89.5898 26.2109ZM88.6875 11.5391V10.5391H87.6875V11.5391H88.6875ZM92.3672 11.5391H93.3672V10.5391H92.3672V11.5391ZM93.3398 25.0273L92.6327 25.7345L92.637 25.7387L93.3398 25.0273ZM98.4961 25.0273L99.1989 25.7387L99.2032 25.7345L98.4961 25.0273ZM99.4688 11.5391V12.5391H103.148V11.5391V10.5391H99.4688V11.5391ZM103.148 11.5391H102.148V22.8594H103.148H104.148V11.5391H103.148ZM103.148 22.8594H102.148C102.148 23.9689 101.889 24.8975 101.398 25.6803L102.246 26.2109L103.094 26.7416C103.807 25.6025 104.148 24.2967 104.148 22.8594H103.148ZM102.246 26.2109L101.4 25.6772C100.905 26.4621 100.207 27.0833 99.2754 27.5392L99.7148 28.4375L100.154 29.3358C101.394 28.7292 102.384 27.8661 103.092 26.7447L102.246 26.2109ZM99.7148 28.4375L99.2754 27.5392C98.3505 27.9917 97.2404 28.2344 95.918 28.2344V29.2344V30.2344C97.4861 30.2344 98.9073 29.9458 100.154 29.3358L99.7148 28.4375ZM95.918 29.2344V28.2344C94.5868 28.2344 93.473 27.9914 92.5488 27.5392L92.1094 28.4375L91.6699 29.3358C92.9176 29.9461 94.3429 30.2344 95.918 30.2344V29.2344ZM92.1094 28.4375L92.5514 27.5405C91.6273 27.0851 90.932 26.4639 90.4355 25.6772L89.5898 26.2109L88.7442 26.7447C89.4508 27.8642 90.4352 28.7274 91.6674 29.3345L92.1094 28.4375ZM89.5898 26.2109L90.4375 25.6803C89.9474 24.8975 89.6875 23.9689 89.6875 22.8594H88.6875H87.6875C87.6875 24.2967 88.0292 25.6025 88.7422 26.7416L89.5898 26.2109ZM88.6875 22.8594H89.6875V11.5391H88.6875H87.6875V22.8594H88.6875ZM88.6875 11.5391V12.5391H92.3672V11.5391V10.5391H88.6875V11.5391ZM92.3672 11.5391H91.3672V22.5547H92.3672H93.3672V11.5391H92.3672ZM92.3672 22.5547H91.3672C91.3672 23.7935 91.7789 24.8806 92.6327 25.7345L93.3398 25.0273L94.047 24.3202C93.6039 23.8772 93.3672 23.3159 93.3672 22.5547H92.3672ZM93.3398 25.0273L92.637 25.7387C93.505 26.5962 94.6338 26.9883 95.918 26.9883V25.9883V24.9883C95.0615 24.9883 94.4715 24.7397 94.0427 24.316L93.3398 25.0273ZM95.918 25.9883V26.9883C97.2021 26.9883 98.3309 26.5962 99.1989 25.7387L98.4961 25.0273L97.7933 24.316C97.3644 24.7397 96.7745 24.9883 95.918 24.9883V25.9883ZM98.4961 25.0273L99.2032 25.7345C100.057 24.8806 100.469 23.7935 100.469 22.5547H99.4688H98.4688C98.4688 23.3159 98.232 23.8772 97.789 24.3202L98.4961 25.0273ZM99.4688 22.5547H100.469V11.5391H99.4688H98.4688V22.5547H99.4688ZM106.195 29H105.195V30H106.195V29ZM106.195 11.5391V10.5391H105.195V11.5391H106.195ZM109.875 11.5391H110.875V10.5391H109.875V11.5391ZM109.875 19.2383H108.875V20.2383H109.875V19.2383ZM110.098 19.2383V20.2383H110.572L110.872 19.8711L110.098 19.2383ZM116.391 11.5391V10.5391H115.916L115.616 10.9062L116.391 11.5391ZM120.809 11.5391L121.579 12.1766L122.934 10.5391H120.809V11.5391ZM114.34 19.3555L113.569 18.7179L113.091 19.2963L113.513 19.9173L114.34 19.3555ZM120.891 29V30H122.779L121.718 28.4381L120.891 29ZM116.461 29L115.628 29.5538L115.925 30H116.461V29ZM111.691 21.8281L112.524 21.2744L111.775 20.1487L110.918 21.194L111.691 21.8281ZM109.875 24.043L109.102 23.4088L108.875 23.6854V24.043H109.875ZM109.875 29V30H110.875V29H109.875ZM106.195 29H107.195V11.5391H106.195H105.195V29H106.195ZM106.195 11.5391V12.5391H109.875V11.5391V10.5391H106.195V11.5391ZM109.875 11.5391H108.875V19.2383H109.875H110.875V11.5391H109.875ZM109.875 19.2383V20.2383H110.098V19.2383V18.2383H109.875V19.2383ZM110.098 19.2383L110.872 19.8711L117.165 12.1719L116.391 11.5391L115.616 10.9062L109.323 18.6054L110.098 19.2383ZM116.391 11.5391V12.5391H120.809V11.5391V10.5391H116.391V11.5391ZM120.809 11.5391L120.038 10.9015L113.569 18.7179L114.34 19.3555L115.11 19.993L121.579 12.1766L120.809 11.5391ZM114.34 19.3555L113.513 19.9173L120.063 29.5619L120.891 29L121.718 28.4381L115.167 18.7936L114.34 19.3555ZM120.891 29V28H116.461V29V30H120.891V29ZM116.461 29L117.294 28.4462L112.524 21.2744L111.691 21.8281L110.859 22.3819L115.628 29.5538L116.461 29ZM111.691 21.8281L110.918 21.194L109.102 23.4088L109.875 24.043L110.648 24.6771L112.465 22.4623L111.691 21.8281ZM109.875 24.043H108.875V29H109.875H110.875V24.043H109.875ZM109.875 29V28H106.195V29V30H109.875V29Z" fill="black" mask="url(#path-1-outside-1_251_1545)"/>
<path d="M127.518 22.1618L122.967 19.2771L136.139 9.94667L130.65 18.1795L135.041 19.826L123.472 30.8449L127.518 22.1618Z" fill="#FBBC05"/>
</svg>
